<svg enable-background="new 0 0 480.006 480.006" viewBox="0 0 480.006 480.006" xmlns="http://www.w3.org/2000/svg"><path d="m432.003 192.006c4.418 0 8-3.582 8-8v-24h32c4.418 0 8-3.582 8-8v-80c0-3.599-2.403-6.755-5.872-7.712l-232-64c-1.392-.392-2.864-.392-4.256 0l-232 64c-3.469.957-5.872 4.113-5.872 7.712v80c0 4.418 3.582 8 8 8h32v24c0 4.418 3.582 8 8 8h8v128h-8c-4.418 0-8 3.582-8 8v24h-16c-4.418 0-8 3.582-8 8v24h-8c-4.418 0-8 3.582-8 8v32c0 4.418 3.582 8 8 8h184v40c0 4.418 3.582 8 8 8h272c4.418 0 8-3.582 8-8v-176c0-4.418-3.582-8-8-8h-48v-96zm-416-48v-65.904l224-61.8 224 61.8v65.904zm256 32v-16h48v16h-8zm32 16v96h-16v-96zm16 0h8c4.418 0 8-3.582 8-8v-24h24v24c0 4.418 3.582 8 8 8h8v96h-56zm-56 0h8v96h-64v-96h8c4.418 0 8-3.582 8-8v-24h32v24c0 4.418 3.582 8 8 8zm-152 128h-8v-128h8c4.418 0 8-3.582 8-8v-24h24v24c0 4.418 3.582 8 8 8h8v128h-8c-4.418 0-8 3.582-8 8v24h-24v-24c0-4.418-3.582-8-8-8zm-56-144v-16h48v16zm32 16v128h-16v-128zm-32 144h48v16h-48zm136 80h-176v-16h176zm0-32h-160v-16h160zm0-32h-32v-16h32zm0-32h-16v-128h16zm-32-144v-16h48v16h-8zm304 288h-256v-96h256zm0-112h-256v-16h256zm0-48v16h-256v-16zm-72-16v-96h16v96zm-16-112v-16h48v16z"/><path d="m442.131 88.662-200-55.2c-1.392-.392-2.864-.392-4.256 0l-200 55.2c-3.469.957-5.872 4.113-5.872 7.712v23.632c0 4.418 3.582 8 8 8h400c4.418 0 8-3.582 8-8v-23.632c0-3.599-2.403-6.755-5.872-7.712zm-10.128 23.344h-384v-9.536l192-52.968 192 52.968z"/><path d="m216.003 80.006c0 13.255 10.745 24 24 24s24-10.745 24-24-10.745-24-24-24-24 10.745-24 24zm32 0c0 4.418-3.582 8-8 8s-8-3.582-8-8 3.582-8 8-8 8 3.582 8 8z"/><path d="m408.003 441.766c9.809 8.915 24.987 8.19 33.903-1.618 8.915-9.809 8.19-24.987-1.618-33.903-4.454-4.048-10.266-6.275-16.284-6.239-5.923.021-11.627 2.245-16 6.24-9.809-8.915-24.987-8.191-33.903 1.617-8.915 9.809-8.191 24.987 1.617 33.903 9.154 8.32 23.131 8.32 32.285 0zm16-25.76c4.418 0 8 3.582 8 8s-3.582 8-8 8-8-3.582-8-8 3.582-8 8-8zm-32 0c4.418 0 8 3.582 8 8s-3.582 8-8 8-8-3.582-8-8 3.582-8 8-8z"/><path d="m232.003 432.006h16c4.418 0 8-3.582 8-8s-3.582-8-8-8h-16c-4.418 0-8 3.582-8 8s3.582 8 8 8z"/><path d="m280.003 432.006h64c4.418 0 8-3.582 8-8s-3.582-8-8-8h-64c-4.418 0-8 3.582-8 8s3.582 8 8 8z"/></svg>