<?xml version="1.0"?>
<svg xmlns="http://www.w3.org/2000/svg" id="Out_line" data-name="Out line" viewBox="0 0 512 512" width="512" height="512"><path d="M168,160a40,40,0,1,0,40,40A40.04584,40.04584,0,0,0,168,160Zm22.62378,32H176V177.37622A24.11413,24.11413,0,0,1,190.62378,192ZM160,177.37622V192H145.37622A24.11413,24.11413,0,0,1,160,177.37622ZM145.37622,208H160v14.62378A24.11413,24.11413,0,0,1,145.37622,208ZM176,222.62378V208h14.62378A24.11413,24.11413,0,0,1,176,222.62378Z"/><path d="M200,352h64a8.00039,8.00039,0,0,0,8-8V288a8.00039,8.00039,0,0,0-8-8H200a8.00039,8.00039,0,0,0-8,8v56A8.00039,8.00039,0,0,0,200,352Zm8-56h48v40H208Z"/><path d="M458.79883,367.12793C483.4834,327.31738,496,298.00293,496,280a80,80,0,0,0-160,0c0,18.00293,12.5166,47.31738,37.20117,87.12793C383.2373,383.31372,393.35107,398.07275,400.36182,408H336V368a8.00039,8.00039,0,0,0-8-8H304V264h.85059a20.00005,20.00005,0,0,0,13.418-34.83105l-121.71-110.11915a40.23553,40.23553,0,0,0-55.875,2.15235L120,143.03467v-8.41089A23.99787,23.99787,0,0,0,112,88H64a23.99787,23.99787,0,0,0-8,46.62378V210.5896L37.37891,230.24512A20.00035,20.00035,0,0,0,51.89844,264H56v96H40a8.00039,8.00039,0,0,0-8,8v40H16v16H464V408H431.63818C438.64893,398.07275,448.7627,383.31372,458.79883,367.12793ZM352,280a64,64,0,0,1,128,0c0,27.51074-41.56445,91.1582-64,122.44629C393.56445,371.1582,352,307.51074,352,280ZM320,408H240V376h80ZM64,104h48a8,8,0,0,1,0,16H64a8,8,0,0,1,0-16Zm8,32h32v23.92334L72,193.70093ZM48.22363,245.58008a3.87241,3.87241,0,0,1,.77051-4.33106l103.30469-109.043a24.14227,24.14227,0,0,1,33.52539-1.291l121.71,110.11914A4,4,0,0,1,304.85059,248H51.89844A3.87377,3.87377,0,0,1,48.22363,245.58008ZM72,264H288v96H232a8.00039,8.00039,0,0,0-8,8v40H168V288a8.00039,8.00039,0,0,0-8-8H96a8.00039,8.00039,0,0,0-8,8v72H72Zm64,96H104V296h48V408h-8V368A8.00039,8.00039,0,0,0,136,360ZM48,376h80v32H48Z"/><path d="M464,280a48,48,0,1,0-48,48A48.05375,48.05375,0,0,0,464,280Zm-80,0a32,32,0,1,1,32,32A32.03667,32.03667,0,0,1,384,280Z"/></svg>
