<svg viewBox="0 0 159.77413 196.64596" xmlns="http://www.w3.org/2000/svg" xmlns:xlink="http://www.w3.org/1999/xlink"><linearGradient id="a" gradientUnits="userSpaceOnUse" x1="65.71982" x2="77.95466" y1="108.0375" y2="108.0375"><stop offset="0" stop-color="#f89f25"/><stop offset="1" stop-color="#f4822c"/></linearGradient><linearGradient id="b" x1="43.77101" x2="138.39485" xlink:href="#a" y1="34.13101" y2="34.13101"/><linearGradient id="c" x1="53.10056" x2="65.33539" xlink:href="#a" y1="95.67291" y2="95.67291"/><linearGradient id="d" x1="40.48127" x2="52.71611" xlink:href="#a" y1="83.10882" y2="83.10882"/><linearGradient id="e" x1="22.01839" x2="128.95417" xlink:href="#a" y1="71.53719" y2="71.53719"/><linearGradient id="f" x1="27.862" x2="40.09684" xlink:href="#a" y1="70.54474" y2="70.54474"/><linearGradient id="g" x1=".6941" x2="158.29348" xlink:href="#a" y1="188.53388" y2="188.53388"/><path d="m73.26767 102.14569a4.687 4.687 0 0 0 -3.31629 1.36566l-4.23156 4.21323 3.778 3.7616a14.993 14.993 0 0 0 3.255 2.44313l3.83112-3.81447a4.66744 4.66744 0 0 0 -3.31629-7.96915z" fill="url(#a)"/><path d="m46.52739 34.96711a10.52813 10.52813 0 0 0 14.77718 0l8.70748-8.66911h.03771l3.47024-3.45513a10.765 10.765 0 0 1 15.15572 0l45.61888 45.41913a15.06535 15.06535 0 0 0 -.30923-20.98108l-43.07187-42.88331a15.23515 15.23515 0 0 0 -21.41565 0l-25.72685 25.61439a10.3269 10.3269 0 0 0 2.75639 4.95511z" fill="url(#b)"/><path d="m60.64839 89.58182a4.68765 4.68765 0 0 0 -3.31628 1.36544l-4.23155 4.21324 6.63255 6.60349 4.23157-4.21323a4.66722 4.66722 0 0 0 -3.31629-7.96894z" fill="url(#c)"/><path d="m48.02912 77.01774a4.68692 4.68692 0 0 0 -3.31628 1.36565l-4.23157 4.213 6.63258 6.6035 4.23155-4.213a4.66743 4.66743 0 0 0 -3.31628-7.96914z" fill="url(#d)"/><path d="m76.89824 82.46539a3.75628 3.75628 0 0 1 0-5.3299 3.79592 3.79592 0 0 1 5.35328 0l21.58186 21.48751 4.74219-4.72132-21.58187-21.48752a3.7559 3.7559 0 0 1 0-5.3299 3.79594 3.79594 0 0 1 5.35329 0l21.58185 21.48749 4.742-4.72154-21.58184-21.48727a3.75628 3.75628 0 0 1 0-5.3299 3.79619 3.79619 0 0 1 5.3535 0l21.5818 21.48727 4.92987-4.90838-24.21417-24.1082-21.42743-21.33373-.42909-.43983-.05035.05034a3.14973 3.14973 0 0 0 -3.96256.38949l-12.04567 11.94838-.16979.17589c-.02633.02633-.05561.048-.08236.07436l-.26963.26732.24393-.24415a18.019 18.019 0 0 1 -28.63151-4.54986l-11.48934 11.439a15.0729 15.0729 0 0 0 -3.161 16.6682l3.47511-3.45973a12.31048 12.31048 0 0 1 17.33913 0 12.13355 12.13355 0 0 1 3.56717 9.01166 12.17875 12.17875 0 0 1 12.61924 12.56408 12.17842 12.17842 0 0 1 12.61927 12.56408 12.19187 12.19187 0 0 1 9.05211 20.81551l-.37643.375a15.0872 15.0872 0 0 0 9.3527-4.33352l7.5666-7.53331z" fill="url(#e)"/><path d="m35.40984 64.45365a4.687 4.687 0 0 0 -3.31628 1.36565l-4.23156 4.213 6.63256 6.6035 4.23157-4.213a4.66743 4.66743 0 0 0 -3.31629-7.96915z" fill="url(#f)"/><path d="m14.53641 190.72392a.77577.77577 0 0 1 .54306.25615.73182.73182 0 0 1 .25868.52263 1.06191 1.06191 0 0 1 -.07942.45079 8.085 8.085 0 0 1 -1.56513 2.29 7.79189 7.79189 0 0 1 -2.40775 1.69048 7.37379 7.37379 0 0 1 -3.12754.64038 7.33473 7.33473 0 0 1 -3.08393-.63006 6.87287 6.87287 0 0 1 -2.3593-1.74188 7.93535 7.93535 0 0 1 -1.50089-2.587 9.4772 9.4772 0 0 1 -.52009-3.16608 8.98529 8.98529 0 0 1 .52768-3.11975 7.66583 7.66583 0 0 1 1.51142-2.54614 7.05958 7.05958 0 0 1 2.35129-1.71112 7.33884 7.33884 0 0 1 3.04054-.61468 7.709 7.709 0 0 1 3.08393.59425 7.78736 7.78736 0 0 1 2.41804 1.59311 7.55977 7.55977 0 0 1 1.59589 2.20805.86008.86008 0 0 1 -.14345.97847.67208.67208 0 0 1 -.48681.25615.896.896 0 0 1 -.91444-.502 6.09755 6.09755 0 0 0 -2.11831-2.42312 5.9186 5.9186 0 0 0 -3.43488-.9888 5.4067 5.4067 0 0 0 -3.0456.84535 5.603 5.603 0 0 0 -1.97484 2.2744 7.2 7.2 0 0 0 -.69432 3.18652 7.37933 7.37933 0 0 0 .689 3.212 5.50687 5.50687 0 0 0 1.97507 2.30031 5.41275 5.41275 0 0 0 3.06076.85546 5.76664 5.76664 0 0 0 2.42333-.49693 6.32037 6.32037 0 0 0 1.9005-1.32162 6.09708 6.09708 0 0 0 1.22957-1.77769.84914.84914 0 0 1 .84794-.52763zm8.69105-6.13733a3.67371 3.67371 0 0 1 2.20278.71222 11.36565 11.36565 0 0 1 1.71112 1.50089l.10491-1.44465a.87524.87524 0 0 1 .182-.56349.61187.61187 0 0 1 .51483-.23572.80048.80048 0 0 1 .80174.79921v10.35351a.76126.76126 0 0 1 -.23319.56349.803.803 0 0 1 -1.37029-.56349v-1.30625a8.95224 8.95224 0 0 1 -1.79053 1.48551 3.96222 3.96222 0 0 1 -2.18235.66608 4.9746 4.9746 0 0 1 -2.18488-.48681 5.64075 5.64075 0 0 1 -1.76483-1.32163 6.22252 6.22252 0 0 1 -1.17312-1.90576 6.13492 6.13492 0 0 1 -.41751-2.24891 6.20184 6.20184 0 0 1 .41751-2.25418 6.11236 6.11236 0 0 1 1.1807-1.92114 5.68248 5.68248 0 0 1 1.78021-1.332 5.04376 5.04376 0 0 1 2.2209-.49688zm3.97288 5.93236a4.18762 4.18762 0 0 0 -.53294-2.06438 4.36541 4.36541 0 0 0 -1.43179-1.55229 3.51906 3.51906 0 0 0 -1.998-.59424 3.43361 3.43361 0 0 0 -1.99276.60435 4.3108 4.3108 0 0 0 -1.39093 1.5881 4.51977 4.51977 0 0 0 -.00505 4.15994 4.24568 4.24568 0 0 0 1.36775 1.57273 3.31367 3.31367 0 0 0 1.9519.60457 3.54 3.54 0 0 0 2.01593-.61489 4.56935 4.56935 0 0 0 1.46508-1.60348 4.25953 4.25953 0 0 0 .55081-2.10036zm11.03476-4.83086a.92168.92168 0 0 1 -.205.57381.57921.57921 0 0 1 -.44826.26121 1.44808 1.44808 0 0 1 -.66862-.16389 1.5894 1.5894 0 0 0 -.76066-.16915 2.906 2.906 0 0 0 -1.76484.48155 2.62606 2.62606 0 0 0 -.90937 1.22957 4.67923 4.67923 0 0 0 -.269 1.5881v6.2397a.949.949 0 0 1 -.21255.61489.794.794 0 0 1 -.64542.25615.8024.8024 0 0 1 -.64292-.25615.93977.93977 0 0 1 -.21781-.61489v-10.1536a.89761.89761 0 0 1 .28185-.68651.854.854 0 0 1 .60183-.26627.67814.67814 0 0 1 .54306.25616 1.07131 1.07131 0 0 1 .21255.69662l.10258 1.26033a2.91583 2.91583 0 0 1 .59931-1.04525 4.11405 4.11405 0 0 1 1.04251-.86578 2.42782 2.42782 0 0 1 1.21925-.34821 4.39806 4.39806 0 0 1 1.51121.23551.87464.87464 0 0 1 .6303.8761zm6.6189 10.86581a5.64856 5.64856 0 0 1 -3.00473-.82491 6.11517 6.11517 0 0 1 -2.13621-2.20278 6.01378 6.01378 0 0 1 -.78889-3.02769 5.84248 5.84248 0 0 1 .75055-2.90467 5.98013 5.98013 0 0 1 2.0311-2.14654 5.22914 5.22914 0 0 1 2.8638-.81458 5.14315 5.14315 0 0 1 2.67148.72232 5.57964 5.57964 0 0 1 1.95969 1.94157 5.13946 5.13946 0 0 1 .7377 2.71 2.0018 2.0018 0 0 1 -.18958.9018.70411.70411 0 0 1 -.69157.379h-8.33508a4.45651 4.45651 0 0 0 .75055 1.75725 4.35037 4.35037 0 0 0 1.42927 1.3012 3.83235 3.83235 0 0 0 1.92872.49187 4.13585 4.13585 0 0 0 1.77516-.40488 3.85724 3.85724 0 0 0 1.4318-1.09622.8052.8052 0 0 1 .67619-.333.85922.85922 0 0 1 .6507 1.41915 5.69781 5.69781 0 0 1 -2.01846 1.56767 5.81617 5.81617 0 0 1 -2.49219.56344zm3.33229-6.96223a3.5825 3.5825 0 0 0 -.60709-1.629 3.71962 3.71962 0 0 0 -1.28054-1.17312 3.45169 3.45169 0 0 0 -1.71892-.43541 3.59635 3.59635 0 0 0 -1.77495.44553 4.08914 4.08914 0 0 0 -1.33195 1.17838 4.22362 4.22362 0 0 0 -.72759 1.61359zm25.57623-4.16479a.7603.7603 0 0 1 -.05877.297l-3.663 10.26651a.86642.86642 0 0 1 -.32019.40466.851.851 0 0 1 -.49166.16894.79864.79864 0 0 1 -.48155-.16894.956.956 0 0 1 -.32019-.40466l-2.85095-7.9919-2.86381 8.07384a.77208.77208 0 0 1 -.32019.40466.83938.83938 0 0 1 -.49166.16895.77384.77384 0 0 1 -.48154-.174.93119.93119 0 0 1 -.32019-.39961l-3.663-10.27156a.74192.74192 0 0 1 -.05878-.297.86406.86406 0 0 1 1.67257-.28691l2.85095 8.00707 2.86107-8.07384a.86581.86581 0 0 1 .32272-.3994.81992.81992 0 0 1 .479-.1641.853.853 0 0 1 .49441.16916.81934.81934 0 0 1 .32019.39434l2.85094 8.00222 2.86107-8.00222a.89566.89566 0 0 1 .328-.40972.793.793 0 0 1 .4866-.17421.8208.8208 0 0 1 .60457.25615.83951.83951 0 0 1 .25336.60457zm2.94322-2.5769a1.221 1.221 0 0 1 -.86578-.35347 1.15655 1.15655 0 0 1 -.37138-.86072 1.14015 1.14015 0 0 1 .37138-.86051 1.221 1.221 0 0 1 .86578-.35347 1.20494 1.20494 0 0 1 .86831.35347 1.14378 1.14378 0 0 1 .36631.86051 1.16022 1.16022 0 0 1 -.36631.86072 1.20494 1.20494 0 0 1 -.86834.35349zm-.83755 2.48464a.65757.65757 0 0 1 .27658-.52263.839.839 0 0 1 .51483-.2254.956.956 0 0 1 .66356.24078.82058.82058 0 0 1 .26373.63027l.023 10.27135a.85146.85146 0 0 1 -1.46509.59952.83485.83485 0 0 1 -.25362-.60963zm6.5957-3.14039a.85936.85936 0 0 1 1.7187 0l-.01264 2.56657 2.23354.01032a.78353.78353 0 0 1 .566.23572.77482.77482 0 0 1 .23572.56855.80484.80484 0 0 1 -.80174.79921l-2.23354-.01032-.01032 7.1415a2.28758 2.28758 0 0 0 .18179.98353.7511.7511 0 0 0 .7455.36885 1.61843 1.61843 0 0 0 .83-.18959 1.49647 1.49647 0 0 1 .75034-.18958.87048.87048 0 0 1 .8582.86072.86659.86659 0 0 1 -.41246.75813 2.68063 2.68063 0 0 1 -.96815.37917 4.88945 4.88945 0 0 1 -.9888.1127 2.43855 2.43855 0 0 1 -2.03384-.86577 3.51777 3.51777 0 0 1 -.68124-2.23881l.01285-7.11053h-1.7651a.80482.80482 0 0 1 -.80173-.79921.77481.77481 0 0 1 .23571-.56855.78389.78389 0 0 1 .566-.23572h1.76505zm7.00564-.84535a.8704.8704 0 0 1 .86071-.86051.83083.83083 0 0 1 .6071.25615.82188.82188 0 0 1 .25088.60436v5.2665a4.23149 4.23149 0 0 1 1.49857-1.49584 3.66765 3.66765 0 0 1 1.84426-.54306 4.117 4.117 0 0 1 3.62446 1.53165 7.04375 7.04375 0 0 1 1.07074 4.10348v.10259l-.01285 5.40468v.01011a.82138.82138 0 0 1 -.25109.60457.84751.84751 0 0 1 -1.21419 0 .81238.81238 0 0 1 -.25089-.60457v-.01011l.01011-5.43038a6.2068 6.2068 0 0 0 -.57887-2.94048 2.33626 2.33626 0 0 0 -2.25924-1.06568 3.65475 3.65475 0 0 0 -1.84425.44573 3.28124 3.28124 0 0 0 -1.19608 1.13731 2.641 2.641 0 0 0 -.41751 1.39346v6.48047a.8616.8616 0 0 1 -.85819.86072.88849.88849 0 0 1 -.88367-.86072zm17.99951 9.21621a5.88127 5.88127 0 0 1 .7556-2.93543 6.1185 6.1185 0 0 1 2.0389-2.172 5.3935 5.3935 0 0 1 4.9897-.3895 5.44221 5.44221 0 0 1 1.66245 1.14763 5.34274 5.34274 0 0 1 1.0758 1.55734.79424.79424 0 0 1 .08974.3638.80435.80435 0 0 1 -.2511.60436.83268.83268 0 0 1 -.6071.246.8967.8967 0 0 1 -.45859-.14345.79323.79323 0 0 1 -.32019-.3638 3.83124 3.83124 0 0 0 -1.25758-1.49583 3.36822 3.36822 0 0 0 -2.06207-.64544 3.54538 3.54538 0 0 0 -2.00308.59425 4.36046 4.36046 0 0 0 -1.94663 3.64237 4.36048 4.36048 0 0 0 .51989 2.09008 4.24635 4.24635 0 0 0 1.42168 1.55735 3.56275 3.56275 0 0 0 2.00814.58919 3.41436 3.41436 0 0 0 2.06712-.63533 3.78124 3.78124 0 0 0 1.26538-1.49078.79106.79106 0 0 1 .32019-.36885.84564.84564 0 0 1 .45859-.14851.85695.85695 0 0 1 .858.86073.81084.81084 0 0 1 -.07941.35347 5.33621 5.33621 0 0 1 -1.08338 1.55229 5.419 5.419 0 0 1 -1.67 1.14741 5.1203 5.1203 0 0 1 -2.13643.43542 5.1741 5.1741 0 0 1 -2.87391-.8247 6.06522 6.06522 0 0 1 -2.78165-5.12809zm18.51414-5.9785a3.67435 3.67435 0 0 1 2.203.71222 11.36466 11.36466 0 0 1 1.71091 1.50089l.10511-1.44465a.8763.8763 0 0 1 .18179-.56349.6124.6124 0 0 1 .51483-.23572.76993.76993 0 0 1 .56876.23572.76169.76169 0 0 1 .233.56349v10.35351a.761.761 0 0 1 -.233.56349.80311.80311 0 0 1 -1.37049-.56349v-1.30625a8.95116 8.95116 0 0 1 -1.79033 1.48551 3.96273 3.96273 0 0 1 -2.18235.66608 4.97544 4.97544 0 0 1 -2.18508-.48681 5.64319 5.64319 0 0 1 -1.76484-1.32163 6.231 6.231 0 0 1 -1.17312-1.90576 6.13926 6.13926 0 0 1 -.41751-2.24891 6.20626 6.20626 0 0 1 .41751-2.25418 6.117 6.117 0 0 1 1.18092-1.92114 5.67747 5.67747 0 0 1 1.78021-1.332 5.04219 5.04219 0 0 1 2.22065-.49688zm3.97282 5.93241a4.18744 4.18744 0 0 0 -.53274-2.06438 4.36526 4.36526 0 0 0 -1.4318-1.55229 3.51948 3.51948 0 0 0 -1.998-.59424 3.43314 3.43314 0 0 0 -1.99276.60435 4.307 4.307 0 0 0 -1.39093 1.5881 4.51807 4.51807 0 0 0 -.00506 4.15994 4.2458 4.2458 0 0 0 1.36776 1.57273 3.31316 3.31316 0 0 0 1.95189.60457 3.53983 3.53983 0 0 0 2.01573-.61489 4.5701 4.5701 0 0 0 1.46529-1.60348 4.25932 4.25932 0 0 0 .55062-2.10041zm11.03475-4.83086a.92144.92144 0 0 1 -.20475.57381.57921.57921 0 0 1 -.44827.26121 1.44806 1.44806 0 0 1 -.6686-.16389 1.58969 1.58969 0 0 0 -.76087-.16915 2.90684 2.90684 0 0 0 -1.76484.48155 2.627 2.627 0 0 0 -.90917 1.22957 4.67971 4.67971 0 0 0 -.269 1.5881v6.2397a.95018.95018 0 0 1 -.21255.61489.79442.79442 0 0 1 -.64563.25615.80266.80266 0 0 1 -.64292-.25615.93955.93955 0 0 1 -.21761-.61489v-10.1536a.89822.89822 0 0 1 .28164-.68651.85447.85447 0 0 1 .60206-.26627.6781.6781 0 0 1 .543.25616 1.07245 1.07245 0 0 1 .21255.69662l.10238 1.26033a2.91964 2.91964 0 0 1 .59951-1.04525 4.11405 4.11405 0 0 1 1.04251-.86578 2.42788 2.42788 0 0 1 1.21925-.34821 4.39822 4.39822 0 0 1 1.51123.23551.87471.87471 0 0 1 .63011.87605zm6.61888 10.86581a5.64783 5.64783 0 0 1 -3.00452-.82491 6.11349 6.11349 0 0 1 -2.13622-2.20278 6.01406 6.01406 0 0 1 -.7891-3.02769 5.84468 5.84468 0 0 1 .75055-2.90467 5.97909 5.97909 0 0 1 2.03131-2.14654 5.2285 5.2285 0 0 1 2.8636-.81458 5.14392 5.14392 0 0 1 2.67169.72232 5.579 5.579 0 0 1 1.95948 1.94157 5.13754 5.13754 0 0 1 .7377 2.71 2.00167 2.00167 0 0 1 -.18959.9018.70392.70392 0 0 1 -.69157.379h-8.33505a4.46289 4.46289 0 0 0 .75055 1.75725 4.35254 4.35254 0 0 0 1.42927 1.3012 3.83258 3.83258 0 0 0 1.92894.49187 4.13562 4.13562 0 0 0 1.77494-.40488 3.8579 3.8579 0 0 0 1.432-1.09622.80493.80493 0 0 1 .67619-.333.85921.85921 0 0 1 .65049 1.41915 5.69883 5.69883 0 0 1 -2.01825 1.56767 5.81629 5.81629 0 0 1 -2.49238.56339zm3.3325-6.96223a3.58261 3.58261 0 0 0 -.60709-1.629 3.72035 3.72035 0 0 0 -1.28075-1.17312 3.45038 3.45038 0 0 0 -1.71872-.43541 3.59778 3.59778 0 0 0 -1.77516.44553 4.09137 4.09137 0 0 0 -1.332 1.17838 4.22623 4.22623 0 0 0 -.72738 1.61359zm5.69159 6.7777a1.62116 1.62116 0 0 1 -1.15774-.46617 1.52036 1.52036 0 0 1 -.49186-1.13731 1.49837 1.49837 0 0 1 .49186-1.127 1.63861 1.63861 0 0 1 1.15774-.46112 1.659 1.659 0 0 1 1.16806.46112 1.499 1.499 0 0 1 .49167 1.127 1.521 1.521 0 0 1 -.49167 1.13731 1.64118 1.64118 0 0 1 -1.16803.46612z" fill="url(#g)"/><path d="m29.6953 140.39238a3.25776 3.25776 0 0 0 -.79247 1.58494l-4.49214 15.48792-5.07817-16.1698a2.385 2.385 0 0 0 -.84766-1.22241 2.44219 2.44219 0 0 0 -2.93606-.06256 2.29 2.29 0 0 0 -.91254 1.18639l-5.44786 16.40994-4.31688-15.28106a3.30675 3.30675 0 0 0 -.78173-1.66436 2.17968 2.17968 0 0 0 -3.4294.10322 3.07687 3.07687 0 0 0 -.66039 1.9574 3.234 3.234 0 0 0 .09837.82133l6.48912 22.62267a2.31185 2.31185 0 0 0 .92454 1.24179 2.9601 2.9601 0 0 0 3.65754-.37475l5.75057-15.95367 5.27639 15.14435a2.21276 2.21276 0 0 0 .94731 1.21525 2.60044 2.60044 0 0 0 1.41936.43942 2.45184 2.45184 0 0 0 1.45182-.47544 2.32223 2.32223 0 0 0 .89821-1.24411l6.72188-22.83165a2.63957 2.63957 0 0 0 .12618-.84534 3.08136 3.08136 0 0 0 -.66166-1.95737 2.17918 2.17918 0 0 0 -3.40433-.1321z" fill="#383939"/><path d="m37.45 144.67429a2.50912 2.50912 0 0 0 1.82045.70378 2.17344 2.17344 0 0 0 1.71238-.795 2.5781 2.5781 0 0 0 .6267-1.7027l-.01918-1.11666a2.47316 2.47316 0 0 0 -4.02386-1.89249 1.95472 1.95472 0 0 0 -.89462 1.66435l.036 1.40484a2.438 2.438 0 0 0 .74213 1.73388z" fill="#636565"/><path d="m40.79662 146.682a2.54592 2.54592 0 0 0 -3.30343-.0575 1.9837 1.9837 0 0 0 -.8405 1.64034l.03855 17.332a2.31471 2.31471 0 0 0 .72274 1.71007 2.41633 2.41633 0 0 0 1.74609.70358 2.442 2.442 0 0 0 1.73029-.69157 2.30427 2.30427 0 0 0 .736-1.70522l-.036-17.18072a2.21316 2.21316 0 0 0 -.79374-1.75098z" fill="#636565"/><path d="m65.52076 139.71745-18.53163.11059a2.46886 2.46886 0 1 0 .024 4.93767l6.82763-.05056-.0889 20.65836a2.33934 2.33934 0 0 0 .73012 1.71955 2.473 2.473 0 0 0 3.47743-.00232 2.34576 2.34576 0 0 0 .7278-1.73155l.09121-20.67037 6.78445-.036a2.46235 2.46235 0 0 0 1.741-4.20755 2.41253 2.41253 0 0 0 -1.78311-.72782z" fill="#636565"/><g fill="#383939"><path d="m93.59636 156.51184a2.41143 2.41143 0 0 0 -2.35824 1.472 8.59175 8.59175 0 0 1 -1.76526 2.488 9.07718 9.07718 0 0 1 -2.75342 1.86616 8.57961 8.57961 0 0 1 -3.48586.69641 7.52527 7.52527 0 0 1 -4.34911-1.24411 8.3286 8.3286 0 0 1 -2.83262-3.36936 11.42218 11.42218 0 0 1 .00947-9.40221 8.5018 8.5018 0 0 1 2.84232-3.40054 7.40579 7.40579 0 0 1 4.31077-1.26075 8.52048 8.52048 0 0 1 4.96169 1.42885 8.97608 8.97608 0 0 1 3.04874 3.4511 2.33209 2.33209 0 0 0 1.03641 1.08064 2.4253 2.4253 0 0 0 3.67439-2.08924 2.35147 2.35147 0 0 0 -.26542-1.08317 13.77618 13.77618 0 0 0 -2.80377-3.85218 14.00067 14.00067 0 0 0 -4.2244-2.8122 13.7964 13.7964 0 0 0 -10.807.09353 12.667 12.667 0 0 0 -4.14878 3.14376 14.38846 14.38846 0 0 0 -2.65252 4.5606 15.86114 15.86114 0 0 0 -.92708 5.39878 16.21482 16.21482 0 0 0 .91739 5.442 14.19446 14.19446 0 0 0 2.63458 4.57009 12.45546 12.45546 0 0 0 4.16057 3.14607 12.65426 12.65426 0 0 0 5.45293 1.15522 13.26153 13.26153 0 0 0 5.49841-1.112 13.71735 13.71735 0 0 0 4.22061-2.93943 14.21006 14.21006 0 0 0 2.73193-3.94571 2.61086 2.61086 0 0 0 .24857-1.16237 2.19672 2.19672 0 0 0 -.735-1.61865 2.30706 2.30706 0 0 0 -1.6403-.70129z"/><path d="m116.42337 146.72055a2.54662 2.54662 0 0 0 -.57761 1.62349l-.03349.30018q-.32071-.31692-.70379-.6269a10.31987 10.31987 0 0 0 -2.48189-1.4577 9.01928 9.01928 0 0 0 -7.18679.3027 10.80459 10.80459 0 0 0 -3.41508 2.45662 11.537 11.537 0 0 0 -2.27313 3.54252 10.99475 10.99475 0 0 0 -.814 4.17153 10.71948 10.71948 0 0 0 .83565 4.18585 11.48112 11.48112 0 0 0 2.302 3.50861 10.90784 10.90784 0 0 0 3.41613 2.40163 9.99982 9.99982 0 0 0 8.15094.024 6.76009 6.76009 0 0 0 2.16508-1.47224 2.59586 2.59586 0 0 0 .58119 1.63087 2.09058 2.09058 0 0 0 1.67994.77077 2.4785 2.4785 0 0 0 2.46883-2.464l.03834-17.20494a2.38635 2.38635 0 0 0 -.72759-1.741 2.34057 2.34057 0 0 0 -3.42473.04801zm-.93423 10.27642a6.03306 6.03306 0 0 1 -.78279 3.00662 6.2714 6.2714 0 0 1 -2.10988 2.23838 5.54641 5.54641 0 0 1 -5.8323-.00253 6.28788 6.28788 0 0 1 -2.136-2.24069 6.01846 6.01846 0 0 1 -.79141-3.02116 6.1042 6.1042 0 0 1 .77456-3.00916 6.1985 6.1985 0 0 1 2.10967-2.23817 5.707 5.707 0 0 1 5.91867-.00253 6.19238 6.19238 0 0 1 2.84949 5.26924z"/><path d="m136.83927 146.50927a9.91619 9.91619 0 0 0 -3.32155-.4708 4.72745 4.72745 0 0 0 -2.25629.5835 7.52671 7.52671 0 0 0 -1.77221 1.30182c-.0337.03118-.06614.06467-.09732.09606a2.53668 2.53668 0 0 0 -1.03745-1.542 2.03963 2.03963 0 0 0 -2.94912.317 2.76677 2.76677 0 0 0 -.54769 1.74841v17.07286a2.33914 2.33914 0 0 0 .69177 1.7602 2.76358 2.76358 0 0 0 3.56865-.00463 2.33616 2.33616 0 0 0 .67724-1.73893v-9.56293a10.43207 10.43207 0 0 1 .38318-2.942 3.98719 3.98719 0 0 1 1.16595-1.92366 3.19411 3.19411 0 0 1 2.15412-.67493 2.97393 2.97393 0 0 1 1.33764.33388 2.95085 2.95085 0 0 0 1.66309.4034 2.06211 2.06211 0 0 0 1.97064-2.25987 2.40472 2.40472 0 0 0 -1.63065-2.49738z"/><path d="m158.88561 158.50755a2.34869 2.34869 0 0 0 .82977-1.56114 11.16553 11.16553 0 0 0 .05875-1.11919 9.3283 9.3283 0 0 0 -1.34-4.904 10.13374 10.13374 0 0 0 -3.52082-3.50145 9.69157 9.69157 0 0 0 -8.87727-.42741 10.57245 10.57245 0 0 0 -3.27814 2.39195 11.24072 11.24072 0 0 0 -2.18426 3.43888 10.77177 10.77177 0 0 0 -.78783 4.078 11.25559 11.25559 0 0 0 3.02116 7.72352 10.64508 10.64508 0 0 0 3.37063 2.41828 10.06224 10.06224 0 0 0 4.21366.89106 9.36224 9.36224 0 0 0 4.98211-1.32563 10.77192 10.77192 0 0 0 3.33819-3.08141 2.37354 2.37354 0 0 0 .45016-1.41684 2.42048 2.42048 0 0 0 -.72043-1.74588 2.49835 2.49835 0 0 0 -3.79088.35769 5.88637 5.88637 0 0 1 -1.78189 1.62349 4.92668 4.92668 0 0 1 -4.95937.04571 6.49791 6.49791 0 0 1 -2.7846-3.247l12.12551-.01685a2.44717 2.44717 0 0 0 1.63555-.62178zm-13.56047-4.29645a6.21454 6.21454 0 0 1 1.58031-1.99339 4.71485 4.71485 0 0 1 3.17114-1.16954 4.44708 4.44708 0 0 1 3.04412 1.12867 4.80251 4.80251 0 0 1 1.41558 2.01973z"/></g></svg>