<svg id="Layer_1" data-name="Layer 1" xmlns="http://www.w3.org/2000/svg" xmlns:xlink="http://www.w3.org/1999/xlink" viewBox="0 0 159.77 196.65"><defs><style>.cls-1{fill:url(#linear-gradient);}.cls-2{fill:url(#linear-gradient-2);}.cls-3{fill:url(#linear-gradient-3);}.cls-4{fill:url(#linear-gradient-4);}.cls-5{fill:url(#linear-gradient-5);}.cls-6{fill:url(#linear-gradient-6);}.cls-7{fill:url(#linear-gradient-7);}.cls-8{fill:#fff;}.cls-9{fill:#d3d3d3;}</style><linearGradient id="linear-gradient" x1="65.72" y1="89.96" x2="77.95" y2="89.96" gradientTransform="matrix(1, 0, 0, -1, 0, 198)" gradientUnits="userSpaceOnUse"><stop offset="0" stop-color="#f89f25"/><stop offset="1" stop-color="#f4822c"/></linearGradient><linearGradient id="linear-gradient-2" x1="43.77" y1="163.87" x2="138.39" y2="163.87" xlink:href="#linear-gradient"/><linearGradient id="linear-gradient-3" x1="53.1" y1="102.33" x2="65.33" y2="102.33" xlink:href="#linear-gradient"/><linearGradient id="linear-gradient-4" x1="40.48" y1="114.89" x2="52.71" y2="114.89" xlink:href="#linear-gradient"/><linearGradient id="linear-gradient-5" x1="22.01" y1="126.46" x2="128.95" y2="126.46" xlink:href="#linear-gradient"/><linearGradient id="linear-gradient-6" x1="27.86" y1="127.46" x2="40.09" y2="127.46" xlink:href="#linear-gradient"/><linearGradient id="linear-gradient-7" x1="0.69" y1="9.47" x2="158.29" y2="9.47" xlink:href="#linear-gradient"/></defs><title>WiTCare_Logo_Vertical-white</title><path class="cls-1" d="M73.27,102.15A4.63,4.63,0,0,0,70,103.51l-4.23,4.21,3.78,3.77a15.19,15.19,0,0,0,3.25,2.44l3.83-3.82a4.66,4.66,0,0,0-3.31-8Z" transform="translate(0 0)"/><path class="cls-2" d="M46.53,35A10.53,10.53,0,0,0,61.3,35L70,26.3h0l3.47-3.46a10.77,10.77,0,0,1,15.16,0l45.61,45.42a15.07,15.07,0,0,0-.3-21L90.91,4.4a15.22,15.22,0,0,0-21.41,0L43.77,30A10.32,10.32,0,0,0,46.53,35Z" transform="translate(0 0)"/><path class="cls-3" d="M60.65,89.58A4.7,4.7,0,0,0,57.33,91L53.1,95.16l6.63,6.6L64,97.55a4.67,4.67,0,0,0-3.31-8Z" transform="translate(0 0)"/><path class="cls-4" d="M48,77a4.73,4.73,0,0,0-3.32,1.36L40.48,82.6l6.63,6.6L51.35,85A4.67,4.67,0,0,0,48,77Z" transform="translate(0 0)"/><path class="cls-5" d="M76.9,82.47a3.77,3.77,0,0,1,0-5.32h0a3.78,3.78,0,0,1,5.35,0l21.58,21.48,4.75-4.72L87,72.41a3.75,3.75,0,0,1,0-5.31v0a3.81,3.81,0,0,1,5.36,0l21.58,21.49,4.74-4.72L97.09,62.36a3.76,3.76,0,0,1,0-5.31l0,0a3.8,3.8,0,0,1,5.35,0L124,78.52,129,73.61,104.74,49.5,83.31,28.17l-.43-.44,0,.05a3.15,3.15,0,0,0-4,.39L66.82,40.12l-.16.17-.09.08-.27.27.25-.25a18,18,0,0,1-25.48-.21,17.46,17.46,0,0,1-3.15-4.34L26.43,47.28A15.07,15.07,0,0,0,23.27,64l3.47-3.46a12.31,12.31,0,0,1,17.34,0,12.15,12.15,0,0,1,3.57,9A12.16,12.16,0,0,1,60.26,81.22c0,.28,0,.57,0,.85A12.16,12.16,0,0,1,72.88,93.79c0,.28,0,.56,0,.84a12.19,12.19,0,0,1,9,20.81l-.38.38a15.1,15.1,0,0,0,9.35-4.33L98.48,104Z" transform="translate(0 0)"/><path class="cls-6" d="M35.41,64.45a4.7,4.7,0,0,0-3.32,1.37L27.86,70l6.63,6.61,4.24-4.22a4.67,4.67,0,0,0-3.32-8Z" transform="translate(0 0)"/><path class="cls-7" d="M14.54,190.72a.82.82,0,0,1,.54.26.75.75,0,0,1,.26.52,1.12,1.12,0,0,1-.08.45,8,8,0,0,1-1.57,2.29,7.63,7.63,0,0,1-2.4,1.69,7.35,7.35,0,0,1-3.13.64,7.16,7.16,0,0,1-3.09-.63,6.71,6.71,0,0,1-2.35-1.74,8.07,8.07,0,0,1-1.51-2.58,9.75,9.75,0,0,1-.52-3.17,9,9,0,0,1,.53-3.12,7.94,7.94,0,0,1,1.51-2.55,7,7,0,0,1,5.4-2.32,7.61,7.61,0,0,1,3.08.59,8,8,0,0,1,2.42,1.59,7.68,7.68,0,0,1,1.59,2.21.85.85,0,0,1-.14,1,.68.68,0,0,1-.49.26.9.9,0,0,1-.91-.5,6.15,6.15,0,0,0-2.12-2.43,6,6,0,0,0-3.44-1,5.47,5.47,0,0,0-3,.85,5.65,5.65,0,0,0-2,2.27,7.19,7.19,0,0,0-.69,3.19,7.39,7.39,0,0,0,.69,3.21,5.35,5.35,0,0,0,5,3.16,5.77,5.77,0,0,0,2.42-.5,6.42,6.42,0,0,0,1.9-1.32,6.23,6.23,0,0,0,1.23-1.78.86.86,0,0,1,.85-.53Zm8.69-6.13a3.64,3.64,0,0,1,2.2.71,11.07,11.07,0,0,1,1.71,1.5l.11-1.44a.83.83,0,0,1,.18-.57.59.59,0,0,1,.51-.23.79.79,0,0,1,.8.8v10.35a.75.75,0,0,1-.23.56.81.81,0,0,1-1.37-.56V194.4a9.15,9.15,0,0,1-1.79,1.49,3.93,3.93,0,0,1-2.18.66,5,5,0,0,1-2.19-.48,5.58,5.58,0,0,1-1.76-1.32,6.26,6.26,0,0,1-1.17-1.91,6.24,6.24,0,0,1,0-4.5,6,6,0,0,1,1.18-1.92A5.72,5.72,0,0,1,21,185.08a5,5,0,0,1,2.22-.49Zm4,5.93a4.31,4.31,0,0,0-.53-2.07,4.52,4.52,0,0,0-1.43-1.55,3.57,3.57,0,0,0-2-.59,3.48,3.48,0,0,0-2,.6,4.44,4.44,0,0,0-1.39,1.59,4.53,4.53,0,0,0,0,4.16,4.23,4.23,0,0,0,1.37,1.57,3.25,3.25,0,0,0,2,.61,3.51,3.51,0,0,0,2-.62,4.6,4.6,0,0,0,1.47-1.6,4.3,4.3,0,0,0,.55-2.1Zm11-4.83a1,1,0,0,1-.21.57.59.59,0,0,1-.45.26,1.44,1.44,0,0,1-.67-.16,1.52,1.52,0,0,0-.76-.17,3,3,0,0,0-1.76.48,2.59,2.59,0,0,0-.91,1.23,4.79,4.79,0,0,0-.27,1.59v6.24a1,1,0,0,1-.21.61.81.81,0,0,1-.65.26.78.78,0,0,1-.64-.26.92.92,0,0,1-.22-.61V185.58a.9.9,0,0,1,.28-.69.88.88,0,0,1,.6-.27.68.68,0,0,1,.55.26,1.09,1.09,0,0,1,.21.7l.1,1.26a3,3,0,0,1,.6-1.05,4.34,4.34,0,0,1,1-.87,2.39,2.39,0,0,1,1.22-.34,4.5,4.5,0,0,1,1.51.23.89.89,0,0,1,.64.88Zm6.61,10.86a5.56,5.56,0,0,1-3-.82,6.07,6.07,0,0,1-2.93-5.23,5.92,5.92,0,0,1,2.79-5.05,5.18,5.18,0,0,1,2.86-.82,5,5,0,0,1,2.67.73,5.52,5.52,0,0,1,2,1.94,5.14,5.14,0,0,1,.74,2.71,2,2,0,0,1-.19.9.73.73,0,0,1-.69.38H40.72a4.56,4.56,0,0,0,2.18,3.06,3.85,3.85,0,0,0,1.93.49,4.07,4.07,0,0,0,1.78-.41A3.9,3.9,0,0,0,48,193.34a.81.81,0,0,1,.67-.34.86.86,0,0,1,.86.86.81.81,0,0,1-.21.56,5.6,5.6,0,0,1-2,1.57,5.82,5.82,0,0,1-2.5.56Zm3.34-7a3.72,3.72,0,0,0-.61-1.63,3.78,3.78,0,0,0-1.28-1.17,3.58,3.58,0,0,0-1.72-.44,3.71,3.71,0,0,0-1.78.45A4.06,4.06,0,0,0,41.47,188a4.18,4.18,0,0,0-.72,1.61Zm25.57-4.16a.72.72,0,0,1-.06.29L70,196a.86.86,0,0,1-.32.41.84.84,0,0,1-.49.16.81.81,0,0,1-.48-.16,1,1,0,0,1-.32-.41l-2.85-8-2.87,8.07a.76.76,0,0,1-.32.41.93.93,0,0,1-.49.17.83.83,0,0,1-.48-.18,1,1,0,0,1-.32-.4L57.44,185.8a.73.73,0,0,1-.06-.3.86.86,0,0,1,1.67-.28l2.85,8,2.86-8.07a1,1,0,0,1,.32-.4.81.81,0,0,1,1,0,.82.82,0,0,1,.32.39l2.85,8,2.86-8a.89.89,0,0,1,.33-.41.78.78,0,0,1,.48-.17.82.82,0,0,1,.61.25.86.86,0,0,1,.25.61Zm2.95-2.58a1.26,1.26,0,0,1-.87-.35,1.19,1.19,0,0,1-.37-.86,1.12,1.12,0,0,1,.37-.86,1.22,1.22,0,0,1,1.73,0,1.12,1.12,0,0,1,.37.86,1.19,1.19,0,0,1-.37.86,1.21,1.21,0,0,1-.86.35Zm-.84,2.48a.67.67,0,0,1,.27-.52.87.87,0,0,1,.52-.22,1,1,0,0,1,.66.24.83.83,0,0,1,.27.63l0,10.27a.85.85,0,0,1-.84.86.88.88,0,0,1-.63-.26.86.86,0,0,1-.25-.61Zm6.59-3.14a.87.87,0,0,1,.87-.85.85.85,0,0,1,.85.85v2.57H86.4A.76.76,0,0,1,87,185a.79.79,0,0,1-.57,1.36H84.17v7.15a2.37,2.37,0,0,0,.18,1,.76.76,0,0,0,.75.37,1.71,1.71,0,0,0,.83-.19,1.49,1.49,0,0,1,.75-.19.87.87,0,0,1,.44,1.62,2.73,2.73,0,0,1-1,.38,4.6,4.6,0,0,1-1,.11,2.45,2.45,0,0,1-2-.87,3.55,3.55,0,0,1-.68-2.23v-7.12H80.69a.79.79,0,0,1-.8-.79.75.75,0,0,1,.23-.57.78.78,0,0,1,.57-.24h1.76Zm7-.84a.86.86,0,1,1,1.72,0v5.27a4.15,4.15,0,0,1,1.5-1.5,3.62,3.62,0,0,1,1.84-.54,4.12,4.12,0,0,1,3.63,1.53,7.06,7.06,0,0,1,1.07,4.1v.1l0,5.41h0a.75.75,0,0,1-.25.6.84.84,0,0,1-1.2,0v0a.75.75,0,0,1-.25-.6h0v-5.43a6.22,6.22,0,0,0-.58-2.94,2.36,2.36,0,0,0-2.26-1.07,3.75,3.75,0,0,0-1.85.45,3.25,3.25,0,0,0-1.19,1.14,2.61,2.61,0,0,0-.42,1.39v6.48a.86.86,0,0,1-.86.86.88.88,0,0,1-.88-.86Zm18,9.22a5.93,5.93,0,0,1,.75-2.94,6.15,6.15,0,0,1,2-2.17,5.39,5.39,0,0,1,5-.39,5.31,5.31,0,0,1,1.67,1.15,5.37,5.37,0,0,1,1.07,1.55.81.81,0,0,1,.09.37.78.78,0,0,1-.25.6.86.86,0,0,1-.61.25,1,1,0,0,1-.46-.15.8.8,0,0,1-.32-.36,3.87,3.87,0,0,0-1.25-1.5,3.41,3.41,0,0,0-2.07-.64,3.55,3.55,0,0,0-2,.59,4.38,4.38,0,0,0-2,3.65,4.52,4.52,0,0,0,.52,2.09,4.26,4.26,0,0,0,1.43,1.55,3.47,3.47,0,0,0,2,.59,3.4,3.4,0,0,0,2.07-.63,3.82,3.82,0,0,0,1.27-1.49.69.69,0,0,1,.32-.37.75.75,0,0,1,.46-.15.85.85,0,0,1,.85.85h0a.72.72,0,0,1-.08.35,5.09,5.09,0,0,1-1.08,1.55,5.31,5.31,0,0,1-1.67,1.15,5.07,5.07,0,0,1-2.14.44,5.24,5.24,0,0,1-2.87-.83,6.06,6.06,0,0,1-2.78-5.12Zm18.51-6a3.64,3.64,0,0,1,2.21.71,11.07,11.07,0,0,1,1.71,1.5l.1-1.44a.94.94,0,0,1,.18-.57.62.62,0,0,1,.52-.23.77.77,0,0,1,.57.23.79.79,0,0,1,.23.57v10.35a.79.79,0,0,1-.23.56.81.81,0,0,1-1.14,0,.79.79,0,0,1-.23-.56V194.4a9.15,9.15,0,0,1-1.79,1.49,4,4,0,0,1-2.19.66,5,5,0,0,1-2.18-.48,5.74,5.74,0,0,1-1.77-1.32,6.26,6.26,0,0,1-1.17-1.91,6.24,6.24,0,0,1,0-4.5,6,6,0,0,1,1.18-1.92,5.84,5.84,0,0,1,1.78-1.34,5,5,0,0,1,2.22-.49Zm4,5.93a4.21,4.21,0,0,0-.54-2.07A4.34,4.34,0,0,0,128,186.9a3.55,3.55,0,0,0-2-.59,3.45,3.45,0,0,0-2,.6,4.26,4.26,0,0,0-1.39,1.59,4.53,4.53,0,0,0,0,4.16,4.23,4.23,0,0,0,1.37,1.57,3.27,3.27,0,0,0,2,.61,3.54,3.54,0,0,0,2-.62,4.7,4.7,0,0,0,1.47-1.6,4.3,4.3,0,0,0,.55-2.1Zm11-4.83a.9.9,0,0,1-.2.57.59.59,0,0,1-.45.26,1.41,1.41,0,0,1-.67-.16,1.57,1.57,0,0,0-.76-.17,3,3,0,0,0-1.77.48,2.73,2.73,0,0,0-.91,1.23,4.53,4.53,0,0,0-.26,1.59v6.24a1,1,0,0,1-.22.61.78.78,0,0,1-.64.26.81.81,0,0,1-.65-.26.91.91,0,0,1-.21-.61V185.58a.9.9,0,0,1,.28-.69.86.86,0,0,1,.6-.27.67.67,0,0,1,.54.26,1.1,1.1,0,0,1,.22.7l.1,1.26a2.82,2.82,0,0,1,.6-1.05,4.15,4.15,0,0,1,1-.87,2.39,2.39,0,0,1,1.22-.34,4.58,4.58,0,0,1,1.51.23.87.87,0,0,1,.63.88Zm6.62,10.86a5.56,5.56,0,0,1-3-.82,6.1,6.1,0,0,1-2.14-2.2,6,6,0,0,1-.79-3,5.82,5.82,0,0,1,.75-2.91,6,6,0,0,1,2-2.14,5.21,5.21,0,0,1,2.87-.82,5,5,0,0,1,2.67.73,5.6,5.6,0,0,1,2,1.94,5.13,5.13,0,0,1,.73,2.71,1.87,1.87,0,0,1-.19.9.72.72,0,0,1-.69.38h-8.33a4.33,4.33,0,0,0,.75,1.75,4.38,4.38,0,0,0,1.43,1.31,3.82,3.82,0,0,0,1.93.49,4,4,0,0,0,1.77-.41,3.74,3.74,0,0,0,1.43-1.09.83.83,0,0,1,.68-.34.86.86,0,0,1,.65,1.42,5.73,5.73,0,0,1-2,1.57,5.81,5.81,0,0,1-2.49.56Zm3.33-7a3.59,3.59,0,0,0-.6-1.63,3.72,3.72,0,0,0-1.29-1.17,3.51,3.51,0,0,0-1.71-.44,3.68,3.68,0,0,0-1.78.45,4.06,4.06,0,0,0-1.33,1.18,4.2,4.2,0,0,0-.73,1.61Zm5.69,6.78a1.59,1.59,0,0,1-1.15-.47,1.53,1.53,0,0,1,0-2.26,1.6,1.6,0,0,1,1.15-.46,1.63,1.63,0,0,1,1.17.46,1.55,1.55,0,0,1,0,2.26,1.6,1.6,0,0,1-1.17.47Z" transform="translate(0 0)"/><path class="cls-8" d="M29.7,140.39a3.34,3.34,0,0,0-.8,1.59l-4.49,15.49L19.33,141.3a2.36,2.36,0,0,0-.85-1.23,2.43,2.43,0,0,0-2.93-.06,2.25,2.25,0,0,0-.91,1.19L9.19,157.61,4.87,142.33a3.35,3.35,0,0,0-.78-1.67A2.19,2.19,0,0,0,1,140.38a2.58,2.58,0,0,0-.36.38,3.09,3.09,0,0,0-.66,2,3.23,3.23,0,0,0,.1.82l6.49,22.63a2.32,2.32,0,0,0,.92,1.24,3,3,0,0,0,3.66-.38l5.75-15.95,5.28,15.14a2.21,2.21,0,0,0,.94,1.22,2.67,2.67,0,0,0,1.42.44A2.48,2.48,0,0,0,26,167.4a2.32,2.32,0,0,0,.89-1.24l6.73-22.83a2.73,2.73,0,0,0,.12-.85,3.09,3.09,0,0,0-.66-2,2.16,2.16,0,0,0-3.4-.13Z" transform="translate(0 0)"/><path class="cls-9" d="M37.45,144.67a2.52,2.52,0,0,0,1.82.71,2.15,2.15,0,0,0,1.71-.8,2.57,2.57,0,0,0,.63-1.7l0-1.12a2.48,2.48,0,0,0-2.51-2.44,2.46,2.46,0,0,0-1.51.55,2,2,0,0,0-.9,1.67l0,1.4a2.41,2.41,0,0,0,.74,1.73Z" transform="translate(0 0)"/><path class="cls-9" d="M40.8,146.68a2.56,2.56,0,0,0-3.31-.06,2,2,0,0,0-.84,1.64l0,17.34a2.36,2.36,0,0,0,.72,1.71,2.45,2.45,0,0,0,1.75.7,2.42,2.42,0,0,0,1.73-.69,2.34,2.34,0,0,0,.74-1.71l0-17.18A2.22,2.22,0,0,0,40.8,146.68Z" transform="translate(0 0)"/><path class="cls-9" d="M65.52,139.72,47,139.83a2.47,2.47,0,0,0,0,4.94l6.83-.05-.09,20.65a2.36,2.36,0,0,0,.73,1.72,2.48,2.48,0,0,0,3.48,0,2.36,2.36,0,0,0,.73-1.73l.09-20.67,6.78,0A2.47,2.47,0,0,0,68,142.19a2.44,2.44,0,0,0-.73-1.74,2.38,2.38,0,0,0-1.78-.73Z" transform="translate(0 0)"/><path class="cls-8" d="M93.6,156.51A2.4,2.4,0,0,0,91.24,158a8.76,8.76,0,0,1-1.77,2.49,9.06,9.06,0,0,1-2.75,1.87,8.53,8.53,0,0,1-3.49.69,7.48,7.48,0,0,1-4.35-1.24,8.42,8.42,0,0,1-2.83-3.37,11.45,11.45,0,0,1,0-9.4,8.46,8.46,0,0,1,2.84-3.4,7.37,7.37,0,0,1,4.31-1.26,8.51,8.51,0,0,1,5,1.43,8.8,8.8,0,0,1,3,3.45,2.53,2.53,0,0,0,4.37.25,2.44,2.44,0,0,0,.35-1.26,2.37,2.37,0,0,0-.27-1.08,13.69,13.69,0,0,0-2.8-3.86,14.14,14.14,0,0,0-4.23-2.81,13.82,13.82,0,0,0-10.8.09,12.57,12.57,0,0,0-4.15,3.15A14.41,14.41,0,0,0,71,148.28a15.76,15.76,0,0,0-.92,5.4,16.27,16.27,0,0,0,.91,5.44,14.33,14.33,0,0,0,2.64,4.57,12.36,12.36,0,0,0,9.61,4.3,13.17,13.17,0,0,0,5.5-1.11A13.76,13.76,0,0,0,93,163.94,14.17,14.17,0,0,0,95.72,160a2.58,2.58,0,0,0,.25-1.16,2.19,2.19,0,0,0-.73-1.62,2.34,2.34,0,0,0-1.64-.7Z" transform="translate(0 0)"/><path class="cls-8" d="M116.42,146.72a2.52,2.52,0,0,0-.57,1.62l0,.3a8.57,8.57,0,0,0-.7-.62,10.5,10.5,0,0,0-2.48-1.46,9,9,0,0,0-7.19.3,10.82,10.82,0,0,0-3.42,2.46,11.77,11.77,0,0,0-2.27,3.54,11.06,11.06,0,0,0-.81,4.17,10.76,10.76,0,0,0,.83,4.19,11.57,11.57,0,0,0,2.31,3.51,10.87,10.87,0,0,0,3.41,2.4,10,10,0,0,0,8.15,0,6.67,6.67,0,0,0,2.17-1.47,2.56,2.56,0,0,0,.58,1.63,2.07,2.07,0,0,0,1.68.77,2.47,2.47,0,0,0,2.47-2.46l0-17.21a2.44,2.44,0,0,0-.73-1.74,2.35,2.35,0,0,0-3.31-.07l-.12.12ZM115.49,157a6,6,0,0,1-.78,3,6.38,6.38,0,0,1-2.11,2.24,5.56,5.56,0,0,1-5.84,0,6.35,6.35,0,0,1-2.13-2.24,5.93,5.93,0,0,1-.79-3,6.08,6.08,0,0,1,.77-3,6.29,6.29,0,0,1,2.11-2.24,5.72,5.72,0,0,1,5.92,0,6.2,6.2,0,0,1,2.85,5.27Z" transform="translate(0 0)"/><path class="cls-8" d="M136.84,146.51a9.85,9.85,0,0,0-3.32-.47,4.69,4.69,0,0,0-2.26.58,7.85,7.85,0,0,0-1.77,1.3l-.1.1a2.52,2.52,0,0,0-1-1.54,2,2,0,0,0-2.87.22l-.07.09a2.78,2.78,0,0,0-.55,1.75v17.08a2.34,2.34,0,0,0,.69,1.76,2.77,2.77,0,0,0,3.57,0,2.35,2.35,0,0,0,.68-1.74v-9.56a10.11,10.11,0,0,1,.38-2.94,4,4,0,0,1,1.16-1.93,3.18,3.18,0,0,1,2.16-.67,3,3,0,0,1,1.34.33,2.93,2.93,0,0,0,1.66.41,2.07,2.07,0,0,0,2-2.15s0-.07,0-.11a2.4,2.4,0,0,0-1.63-2.5Z" transform="translate(0 0)"/><path class="cls-8" d="M158.89,158.51a2.41,2.41,0,0,0,.83-1.56c0-.38.05-.75.05-1.12a9.24,9.24,0,0,0-1.34-4.91,10.08,10.08,0,0,0-3.52-3.5A9.69,9.69,0,0,0,146,147a10.49,10.49,0,0,0-3.28,2.4,11.38,11.38,0,0,0-2.19,3.44,10.71,10.71,0,0,0-.78,4.07,11.2,11.2,0,0,0,3,7.73,10.47,10.47,0,0,0,3.37,2.41,10,10,0,0,0,4.21.9,9.38,9.38,0,0,0,5-1.33,10.81,10.81,0,0,0,3.34-3.08,2.33,2.33,0,0,0,.45-1.42,2.39,2.39,0,0,0-.72-1.74,2.49,2.49,0,0,0-3.53,0,2.51,2.51,0,0,0-.26.31,5.89,5.89,0,0,1-1.78,1.63,4.94,4.94,0,0,1-5,0,6.5,6.5,0,0,1-2.79-3.24l12.13,0a2.48,2.48,0,0,0,1.64-.62Zm-13.56-4.3a6.11,6.11,0,0,1,1.58-2,4.66,4.66,0,0,1,3.17-1.17,4.43,4.43,0,0,1,3,1.13,4.81,4.81,0,0,1,1.42,2Z" transform="translate(0 0)"/></svg>